<svg width="110" height="48" viewBox="0 0 110 48" fill="none" xmlns="http://www.w3.org/2000/svg">
<rect width="110" height="48" rx="10" fill="#1C1E31"/>
<path d="M63.3858 24.9539C63.4006 23.804 63.706 22.6765 64.2736 21.6764C64.8413 20.6763 65.6527 19.836 66.6323 19.2337C66.01 18.3449 65.1889 17.6134 64.2345 17.0974C63.28 16.5814 62.2183 16.2951 61.1338 16.2612C58.8204 16.0183 56.5776 17.6455 55.3987 17.6455C54.197 17.6455 52.382 16.2853 50.4274 16.3255C49.1632 16.3663 47.9311 16.734 46.8511 17.3926C45.7712 18.0512 44.8803 18.9783 44.2652 20.0836C41.6008 24.6966 43.5882 31.4761 46.1405 35.2049C47.4175 37.0308 48.9099 39.0704 50.8626 38.9981C52.7735 38.9188 53.4872 37.7795 55.7939 37.7795C58.0791 37.7795 58.7487 38.9981 60.7411 38.9521C62.7915 38.9188 64.0835 37.1181 65.3156 35.2749C66.2331 33.9739 66.9391 32.536 67.4075 31.0145C66.2162 30.5106 65.1996 29.6672 64.4844 28.5895C63.7692 27.5117 63.3871 26.2473 63.3858 24.9539V24.9539Z" fill="white"/>
<path d="M59.6233 13.8089C60.7413 12.4668 61.2921 10.7417 61.1587 9C59.4507 9.1794 57.8729 9.99575 56.7398 11.2864C56.1858 11.9169 55.7614 12.6504 55.4911 13.445C55.2207 14.2396 55.1096 15.0797 55.1641 15.9173C56.0185 15.9261 56.8637 15.7409 57.6361 15.3757C58.4085 15.0105 59.0879 14.4748 59.6233 13.8089Z" fill="white"/>
</svg>
