<svg width="110" height="48" viewBox="0 0 110 48" fill="none" xmlns="http://www.w3.org/2000/svg">
<rect width="110" height="48" rx="10" fill="#1C1E31"/>
<path fill-rule="evenodd" clip-rule="evenodd" d="M61.5495 9H48.4411C42.2611 9 40 11.2611 40 17.4411V30.5589C40 36.7389 42.2611 39 48.4411 39H61.5495C67.7295 39 69.9937 36.7389 69.9937 30.5589V17.4411C70 11.2611 67.7389 9 61.5495 9Z" fill="#C8102E"/>
<path d="M45.9403 24H46.7361V27.9253H45.9403V26.3305H44.1434V27.9253H43.3477V24H44.1434V25.5789H45.9403V24ZM50.4245 26.2453C50.4245 26.8768 50.1087 27.2242 49.534 27.2242C48.9592 27.2242 48.6371 26.8768 48.6371 26.2105V24H47.8413V26.2421C47.8413 27.3442 48.454 27.9758 49.5213 27.9758C50.5887 27.9758 51.2203 27.3442 51.2203 26.2074V24H50.4245V26.2453ZM59.6203 26.6968L58.7298 24H58.0761L57.1919 26.7L56.3234 24H55.4771L56.8445 27.9253H57.5045L58.3919 25.3484L59.2824 27.9253H59.9487L61.3161 24H60.4887L59.6203 26.6968ZM62.7403 26.2326H64.1898V25.5221H62.7403V24.72H64.8434V24H61.9571V27.9158H64.9192V27.2084H62.7403V26.2326ZM65.8666 27.9158H66.6529V24H65.8666V27.9158ZM52.7929 27.1042L52.4361 27.9189H51.6245L53.3392 24H54.0403L55.7613 27.9189H54.9403L54.6024 27.1074L52.7929 27.1042ZM53.0898 26.3968H54.2866L53.6866 24.9947L53.0898 26.3968Z" fill="white"/>
<path d="M55 19.0074C53.6761 19.0066 52.4067 18.4803 51.4706 17.5442C50.5344 16.6081 50.0082 15.3386 50.0073 14.0148H50.7115C50.7115 15.1521 51.1634 16.2429 51.9676 17.0471C52.7718 17.8514 53.8626 18.3032 55 18.3032C56.1373 18.3032 57.2281 17.8514 58.0323 17.0471C58.8366 16.2429 59.2884 15.1521 59.2884 14.0148H59.9926C59.9918 15.3386 59.4655 16.6081 58.5294 17.5442C57.5932 18.4803 56.3238 19.0066 55 19.0074V19.0074Z" fill="white"/>
</svg>
