<svg width="110" height="48" viewBox="0 0 110 48" fill="none" xmlns="http://www.w3.org/2000/svg">
<rect width="110" height="48" rx="10" fill="#1C1E31"/>
<path d="M42.5436 9.47353C42.1615 9.93051 41.9685 10.5163 42.0042 11.111V36.8882C41.9684 37.4829 42.1614 38.0688 42.5436 38.5257L42.6299 38.6097L57.0698 24.17V23.8293L42.6299 9.38892L42.5436 9.47353Z" fill="url(#paint0_linear_860_2826)"/>
<path d="M61.8823 28.9858L57.0693 24.1705V23.8298L61.8835 19.0156L61.992 19.0775L67.6948 22.3178C69.3237 23.2433 69.3237 24.7575 67.6948 25.6836L61.992 28.9239L61.8823 28.9858Z" fill="url(#paint1_linear_860_2826)"/>
<path d="M61.9931 28.923L57.0705 23.9999L42.5443 38.5259C42.8762 38.8186 43.3001 38.986 43.7424 38.9991C44.1848 39.0122 44.6178 38.8701 44.9664 38.5975L61.9931 28.923Z" fill="url(#paint2_linear_860_2826)"/>
<path d="M61.9931 19.0769L44.9664 9.40247C44.6178 9.12984 44.1848 8.98776 43.7424 9.00083C43.3001 9.0139 42.8762 9.1813 42.5443 9.47404L57.0705 24.0002L61.9931 19.0769Z" fill="url(#paint3_linear_860_2826)"/>
<path opacity="0.2" d="M61.8846 28.8151L44.9664 38.4276C44.6312 38.6828 44.2221 38.822 43.8009 38.8243C43.3796 38.8265 42.969 38.6917 42.6311 38.4401L42.5443 38.5269L42.6306 38.611L42.6311 38.6104C42.969 38.8621 43.3796 38.997 43.8009 38.9948C44.2222 38.9925 44.6313 38.8532 44.9664 38.5979L61.9931 28.9235L61.8846 28.8151Z" fill="#1C1E31"/>
<path opacity="0.12" d="M42.5436 38.3567C42.1615 37.8997 41.9685 37.3139 42.0042 36.7192V36.8895C41.9685 37.4842 42.1614 38.07 42.5436 38.527L42.6305 38.4402L42.5436 38.3567Z" fill="#1C1E31"/>
<path opacity="0.12" d="M67.6936 25.5125L61.8823 28.8148L61.9908 28.9232L67.6936 25.6828C68.029 25.5372 68.3193 25.3044 68.5342 25.0085C68.7491 24.7126 68.8808 24.3645 68.9154 24.0005C68.8433 24.3302 68.6953 24.6385 68.4833 24.901C68.2712 25.1634 68.0008 25.3728 67.6936 25.5125Z" fill="#1C1E31"/>
<path opacity="0.25" d="M44.9649 9.57349L67.6944 22.4877C68.0017 22.6274 68.2722 22.8368 68.4843 23.0994C68.6964 23.362 68.8443 23.6705 68.9162 24.0003C68.8818 23.6361 68.7503 23.2879 68.5354 22.9918C68.3204 22.6958 68.03 22.4629 67.6944 22.3174L44.9649 9.40321C43.336 8.47765 42.0034 9.24644 42.0034 11.1122V11.2825C42.0034 9.41684 43.336 8.64805 44.9649 9.57349Z" fill="white"/>
<defs>
<linearGradient id="paint0_linear_860_2826" x1="55.7893" y1="10.8392" x2="36.2287" y2="30.3998" gradientUnits="userSpaceOnUse">
<stop stop-color="#00A0FF"/>
<stop offset="0.00657" stop-color="#00A1FF"/>
<stop offset="0.2601" stop-color="#00BEFF"/>
<stop offset="0.5122" stop-color="#00D2FF"/>
<stop offset="0.7604" stop-color="#00DFFF"/>
<stop offset="1" stop-color="#00E3FF"/>
</linearGradient>
<linearGradient id="paint1_linear_860_2826" x1="69.8157" y1="24.0007" x2="41.6132" y2="24.0007" gradientUnits="userSpaceOnUse">
<stop stop-color="#FFE000"/>
<stop offset="0.4087" stop-color="#FFBD00"/>
<stop offset="0.7754" stop-color="#FFA500"/>
<stop offset="1" stop-color="#FF9C00"/>
</linearGradient>
<linearGradient id="paint2_linear_860_2826" x1="59.3183" y1="26.6749" x2="32.7925" y2="53.2006" gradientUnits="userSpaceOnUse">
<stop stop-color="#FF3A44"/>
<stop offset="1" stop-color="#C31162"/>
</linearGradient>
<linearGradient id="paint3_linear_860_2826" x1="38.8868" y1="0.893532" x2="50.7316" y2="12.7384" gradientUnits="userSpaceOnUse">
<stop stop-color="#32A071"/>
<stop offset="0.0685" stop-color="#2DA771"/>
<stop offset="0.4762" stop-color="#15CF74"/>
<stop offset="0.8009" stop-color="#06E775"/>
<stop offset="1" stop-color="#00F076"/>
</linearGradient>
</defs>
</svg>
